<?xml version="1.0" encoding="UTF-8"?>
<!DOCTYPE svg PUBLIC "-//W3C//DTD SVG 1.1//EN" "http://www.w3.org/Graphics/SVG/1.1/DTD/svg11.dtd">
<!-- Creator: CorelDRAW -->
<svg xmlns="http://www.w3.org/2000/svg" xml:space="preserve" width="999.772mm" height="699.911mm" version="1.1" style="shape-rendering:geometricPrecision; text-rendering:geometricPrecision; image-rendering:optimizeQuality; fill-rule:evenodd; clip-rule:evenodd"
viewBox="0 0 99977.22 69991.1"
 xmlns:xlink="http://www.w3.org/1999/xlink"
 xmlns:xodm="http://www.corel.com/coreldraw/odm/2003">
 <defs>
  <style type="text/css">
   <![CDATA[
    .fil1 {fill:black}
    .fil0 {fill:black;fill-rule:nonzero}
   ]]>
  </style>
 </defs>
 <g id="Camada_x0020_1">
  <metadata id="CorelCorpID_0Corel-Layer"/>
  <path class="fil0" d="M85079.93 47091.48c-336.87,198.45 -696.77,339.58 -1117,339.58l-2153.36 0c-1125.73,0 -2023.17,-268.92 -2691.69,-807.1 -668.05,-538.34 -1002.23,-1246.88 -1002.23,-2125.59 0,-234.96 24.93,-476.26 74.14,-724.39 30.96,-137.81 581.84,-2818.55 891.1,-4157.97 223.21,-1051.75 825.84,-1927.45 1809.97,-2626.44 983.96,-699.16 2106.68,-1049.21 3369.1,-1049.21l3118.43 0c1114.15,0 1999.05,266.54 2654.71,798.54 655.82,532.14 983.97,1231.13 983.97,2097.46 0,247.67 -24.93,501.2 -74.3,761.39 -235.12,1064.14 -829.18,1942.54 -1782.35,2635.66 -952.37,693.44 -2066.36,1039.53 -3341,1039.53l-3712.81 0 -111.13 501.04c-12.39,62.23 -18.74,123.98 -18.74,186.05 0,197.66 167.01,296.87 501.19,296.87l6905.54 0 -4303.54 2834.58zm-42774.08 -11158.74l2696.3 0 0.16 -0.96 0.95 0.96 489.13 0 0.15 0.79c867.28,73.33 1574.38,332.58 2121.93,776.78 655.82,532.16 983.96,1231.16 983.96,2097.49 0,232.41 -21.75,470.07 -65.4,713.6l-0.16 0.63 -8.73 47.16 -8.74 38.4 -822.51 4027.31c-504.52,2471.04 -3026.67,4142.56 -6466.1,4142.56 -3459.28,0 -5273.22,-1666.44 -4776.32,-4131.61l2.39 -10.95 518.65 -2533.73 -1.27 0 37.62 -177.33 404.67 -1977.13c157.33,-781.09 321.8,-1598.99 507.7,-2480.25 133.52,-639.15 486.43,-1031.74 835.69,-1290.68l4304.97 -2815.53 -755.04 3572.49zm-672.97 3176.36l-422.76 1992.07 -0.64 0 -383.87 1879.83c-103.82,508.8 320.85,920.94 1192.89,920.94 847.75,0 1440.39,-412.14 1544.37,-920.94l677.41 -3316.88c27.63,-295.12 -198.12,-549.14 -484.36,-555.02l-2123.04 0zm22449.28 8319.1l1638.51 -8009.21 784.25 14.78c581.53,10.95 1035.25,387.99 916.66,969.35l-1434.52 7025.08 4247.98 0 1638.04 -8010.15 781.71 0.63c605.65,0 1036.19,403.72 917.76,984.44l-1434.83 7025.08 4245.91 0 1399.91 -6855.84c727.1,-3560.72 -697.1,-4641.05 -3554.85,-4641.05l-12058.26 2.05 -2351.17 11494.84 4262.9 0zm-5308.78 -6.98l2345.93 -11487.07 -4232.1 0 -2345.77 11487.07 4231.94 0zm-33799.96 -8322.9l-7741.71 0c-420.7,0 -658.51,149.54 -724.4,445.77 -33.18,149.39 -6.19,275.45 92.87,380.7 98.91,105.58 235.28,157.97 408.48,157.97l2507.86 0c1151.61,0 2067.95,222.89 2749.01,668.68 730.59,470.7 1095.73,1133.02 1095.73,1987.61 0,210.34 -24.61,433.41 -73.98,668.51 -222.9,1077.63 -846.49,2000.8 -1857.76,2786.49 -1044.45,811.71 -2197.97,1225.9 -3473.41,1225.9l-8973.17 0 4373.71 -2893.95c303.38,-181.45 710.91,-282.42 1014.29,-282.42l4253.85 0c160.98,0 322.12,-65.09 482.93,-195.11 160.66,-129.87 253.85,-262.9 278.62,-399.27 62.07,-259.89 -123.83,-390.06 -557.23,-390.06l-2488.97 0c-1139.38,0 -2049.53,-284.97 -2730.43,-854.58 -681.06,-569.46 -1021.75,-1306.24 -1021.75,-2210.35 0,-235.13 30.96,-482.95 92.87,-742.83 223.21,-1077.31 832.36,-1934.12 1820.45,-2581.99 956.18,-627.41 2086.52,-947.29 3399.11,-947.29 3987.78,0 7973.8,-1.12 11961.1,-1.12l-1439.43 7049.21c-103.83,508.81 320.84,920.94 1192.89,920.94 847.75,0 1440.54,-412.13 1544.37,-920.94l1439.43 -7049.21 4263.69 0 -1573.1 7703.13c-504.68,2471.19 -3026.67,4142.57 -6466.11,4142.57 -3464.36,0 -5278.77,-1671.38 -4774.25,-4142.57l924.44 -4525.79zm28769.32 8327.51l-1075.41 0c-2799.49,0 -4200.35,-956.5 -4200.35,-2869.35 0,-374.51 50.49,-783.29 145.74,-1226.87 472.14,-2198.92 904.91,-4243.52 1454.68,-6850.13 134.14,-642.32 488.8,-1036.66 839.65,-1296.87l4295.29 -2833.14c-672.01,3184.79 -1651.06,7806.16 -2326.88,10980.14 -32.07,151.3 -41.59,256.23 -41.59,311.64 0,152.57 193.84,228.94 582.15,228.94l1095.89 0 -769.17 3555.64zm32744.56 -7327.21c396.25,0 625.18,-166.69 687.09,-500.87 74.46,-322.11 -86.68,-482.61 -482.77,-482.61l-3118.43 0c-395.78,0 -625.02,167.02 -687.1,500.87l-110.81 482.61 3712.02 0z"/>
  <path class="fil1" d="M57504.01 51826.02c346.51,-41.35 523.9,-521.24 43.3,-521.24l-2588.55 0c-630.07,0 -858.13,-551.73 -740.15,-1101.34 97.04,-452.34 671.14,-898.48 1130.61,-898.48 1143.17,0 2286.4,0 3429.57,0l36.75 0 24.37 27.49c238.91,269.64 144.46,516.63 -136.92,700.93l-20.35 13.32 -24.37 0c-1126.77,0 -2253.54,0 -3380.25,0 -167.83,25.14 -302.56,97.4 -339.55,272.19 -11.91,150.71 23.07,248.99 189.01,248.99l2607.78 0c457.76,0 748.46,229.18 845.09,676.08 30.5,89.49 8.14,265.76 -2.48,355.06l-0.41 3.49 -0.71 3.43c-139.28,674.02 -790.59,985.83 -1429.51,985.83 -1015.63,0 -2031.27,-0.41 -3046.9,-0.41l-30.26 0 -22.95 -19.75c-329.05,-282.93 -201.04,-547.96 139.22,-735.91l18.4 -10.15 21.06 0c1092.73,0 2185.47,0.47 3278.2,0.47zm21548.83 745.59c-329.11,-282.93 -201.1,-547.96 139.21,-735.91l18.41 -10.15 21.06 0c1093.38,0 2187.12,35.33 3280.27,0.53 353.64,-11.26 516.46,-521.3 41.23,-521.3l-2588.61 0c-630.01,0 -858.13,-551.79 -740.15,-1101.34 97.1,-452.28 671.19,-898.48 1130.67,-898.48 1143.17,0 2286.4,0 3429.57,0l36.75 0 24.36 27.49c238.97,269.64 144.47,516.63 -136.97,700.93l-20.35 13.32 -24.37 0c-1128.01,0 -2256.25,-27.84 -3384.15,0 -172.72,4.25 -311.17,94.39 -335.65,271.71 -21.35,154.86 23.66,249.47 189.06,249.47l2607.78 0c460.95,0 742.69,233.78 845.98,680.28 25.9,111.78 16.87,244.93 -4.13,356.35 -128.18,679.92 -794.12,987.26 -1429.92,987.26 -1015.63,0 -2031.21,-0.41 -3046.84,-0.41l-30.27 0 -22.94 -19.75zm-2393.41 -2524.91c-33.69,17.17 -49.38,45.54 -57.69,84.72l-457 2150.53c-58.87,243.47 -182.1,316.55 -411.04,309.76 -235.55,-6.95 -369.46,-138.03 -318.49,-378.06l460 -2166.95 -1475.64 0 -22.94 -19.76c-317.84,-273.25 -194.49,-530.27 134.26,-711.77l18.4 -10.21 3870.64 0 24.37 27.49c239.03,269.64 144.58,516.63 -136.92,700.93l-20.35 13.32 -1607.6 0zm-4127.84 1457l201.21 406.51 1.77 5.31c68.08,204.34 46.96,409.08 -161.39,513.45l-123.53 61.81c-197.44,104.72 -357.24,41.42 -432.28,-167.05l-348.34 -777.9 -1866.8 0 -126.83 598.97c-50.38,196.97 -156.56,403.61 -387.62,403.61l-125.36 0c-236.96,0 -302.56,-168.53 -258.14,-378.11l530.56 -2503.26c57.34,-248.28 242.92,-342.8 484.31,-342.8l2651.2 0c471.33,0 873.05,167.77 957.82,670.67l1.12 6.73 0 6.83c0,309.05 -73.15,599.12 -189.18,883.92l-2.24 5.49 -3.01 5.12c-186.65,317.31 -456.11,516.99 -803.27,600.7zm-8390.12 -576.1c173.37,-819.6 765.75,-1301.86 1526.67,-1574.45l5.43 -1.94 5.6 -1.13c111.2,-22.99 235.19,-45.12 348.99,-45.12l1301.56 0c921.07,0 1341.2,828.76 1222.33,1660.11 -158.5,758.61 -720.03,1232.82 -1406.5,1533.15l-6.49 2.83 -6.84 1.65c-206.41,50.49 -423.32,89.07 -636.39,89.07l-964.08 0c-916.35,0 -1377.3,-502.82 -1421.6,-1403.19l-0.3 -5.01 0.42 -5.02c5.01,-67.78 10.79,-184.46 31.2,-250.95zm-4179.51 618.23l-126.83 598.97c-50.32,197.03 -156.56,403.61 -387.63,403.61l-125.35 0c-236.9,0 -302.62,-168.53 -258.2,-378.11l530.56 -2503.26c57.34,-248.28 243.16,-342.8 484.48,-342.8l2651.14 0c471.39,0 873,167.77 957.83,670.67l1.12 6.73 0 6.83c0,309.05 -73.21,599.12 -189.18,883.92l-2.31 5.55 -3 5.18c-264.93,448.69 -689.6,642.71 -1203.05,642.71l-2329.58 0zm10147.26 -1455.72l-147.01 689.85 2506.97 0c233.13,0 417.88,-689.85 183.22,-689.85l-2543.18 0zm-5187.42 747.72l-47.55 232.95c-57.99,284.26 101.29,497.45 320.14,661.33 72.5,37.23 194.37,93.91 274.66,93.91l1344.91 0c351.06,0 651.85,-302.38 851.94,-560.63 44.07,-82.18 102.47,-197.5 119.22,-291.6l33.57 -148.65c68.6,-318.54 -116.1,-538.53 -369.46,-706.47 -108.95,-48.9 -226.7,-71.97 -346.04,-71.97l-1094.21 0c-451.68,0 -770.23,252.66 -1009.38,620.05 -25.83,49.07 -62.17,118.1 -77.8,171.08zm-4652.86 -747.72l-146.94 689.85 2506.85 0c234.07,0 420.18,-689.85 183.28,-689.85l-2543.19 0z"/>
  <path class="fil1" d="M45746.74 34051.16l2805.59 -4783.12 -4423.32 1389.74 1893.21 -4113.04 -1602.77 453.83c-254.42,-756.43 -514.12,-2225.54 -659.72,-3177.43 -18.8,622.01 95.61,2033.38 180.74,2685.43l-4497.27 1377.57c423.17,-3162.36 2929.48,-11101.9 4777.93,-13403.96 146.99,-175.8 488.63,-188.02 677.35,-174.63 473.1,-347.06 320.4,-245.46 883.35,-235.26 385.4,-279.86 334.71,-185.01 803.8,-164.11l831.15 -1726.36c129.12,-211.18 492.35,-185.05 473.91,-37.01l-700.92 2637.98c-51.5,600.03 371.61,783.1 172.48,1145.74 -343.45,434.57 -686.95,869.2 -1030.4,1303.79l-1506.81 560.02c-690.5,1557.15 -1106.04,3320.48 -1273.23,5011.76 1777,-1059.96 2699.97,-1504.09 4645.95,-1998.07 -400.64,-542.17 -733.27,-1077.7 -859.66,-1755.34 -172.77,-927.06 -9.37,-1927.19 652.62,-2633.47 584.77,-623.69 1411.09,-850.24 2246.31,-781.56 293.34,24.56 660.06,69.82 898.13,253.66 131.86,101.83 203.49,211.35 242.42,370.14 333.85,222 637.37,500.97 917.97,785.6 86.13,87.69 170.97,170.91 238.24,275.01l197.15 728.67c30.9,72.45 88.34,137.91 135.18,199.77 132.27,175.62 198.2,346.64 217.11,566.37l-290.2 1663.07c2417.22,227.76 3520.07,500.97 5761.2,1269.68l-3027.71 3908.9 5058.71 -1337.31 -14838.49 9733.94z"/>
 </g>
</svg>
